FILE "The Invention of Science꞉ A New History of the Scientific Revolution [B0711NY3Z1].m4b" MP3
TRACK 1 AUDIO
  TITLE "Chapter 1"
  INDEX 01 0:00:00
TRACK 2 AUDIO
  TITLE "Chapter 2"
  INDEX 01 11:42:40
TRACK 3 AUDIO
  TITLE "Chapter 3"
  INDEX 01 27:17:49
TRACK 4 AUDIO
  TITLE "Chapter 4"
  INDEX 01 32:49:24
TRACK 5 AUDIO
  TITLE "Chapter 5"
  INDEX 01 50:15:46
TRACK 6 AUDIO
  TITLE "Chapter 6"
  INDEX 01 73:43:26
TRACK 7 AUDIO
  TITLE "Chapter 7"
  INDEX 01 80:04:43
TRACK 8 AUDIO
  TITLE "Chapter 8"
  INDEX 01 96:18:21
TRACK 9 AUDIO
  TITLE "Chapter 9"
  INDEX 01 116:03:53
TRACK 10 AUDIO
  TITLE "Chapter 10"
  INDEX 01 119:57:26
TRACK 11 AUDIO
  TITLE "Chapter 11"
  INDEX 01 127:42:09
TRACK 12 AUDIO
  TITLE "Chapter 12"
  INDEX 01 150:05:01
TRACK 13 AUDIO
  TITLE "Chapter 13"
  INDEX 01 156:31:09
TRACK 14 AUDIO
  TITLE "Chapter 14"
  INDEX 01 170:12:17
TRACK 15 AUDIO
  TITLE "Chapter 15"
  INDEX 01 173:30:50
TRACK 16 AUDIO
  TITLE "Chapter 16"
  INDEX 01 195:30:26
TRACK 17 AUDIO
  TITLE "Chapter 17"
  INDEX 01 203:04:12
TRACK 18 AUDIO
  TITLE "Chapter 18"
  INDEX 01 220:55:08
TRACK 19 AUDIO
  TITLE "Chapter 19"
  INDEX 01 235:45:69
TRACK 20 AUDIO
  TITLE "Chapter 20"
  INDEX 01 247:50:07
TRACK 21 AUDIO
  TITLE "Chapter 21"
  INDEX 01 265:13:59
TRACK 22 AUDIO
  TITLE "Chapter 22"
  INDEX 01 280:20:22
TRACK 23 AUDIO
  TITLE "Chapter 23"
  INDEX 01 311:23:28
TRACK 24 AUDIO
  TITLE "Chapter 24"
  INDEX 01 327:59:28
TRACK 25 AUDIO
  TITLE "Chapter 25"
  INDEX 01 344:59:49
TRACK 26 AUDIO
  TITLE "Chapter 26"
  INDEX 01 363:12:64
TRACK 27 AUDIO
  TITLE "Chapter 27"
  INDEX 01 366:27:46
TRACK 28 AUDIO
  TITLE "Chapter 28"
  INDEX 01 372:21:47
TRACK 29 AUDIO
  TITLE "Chapter 29"
  INDEX 01 393:27:47
TRACK 30 AUDIO
  TITLE "Chapter 30"
  INDEX 01 403:11:49
TRACK 31 AUDIO
  TITLE "Chapter 31"
  INDEX 01 409:25:72
TRACK 32 AUDIO
  TITLE "Chapter 32"
  INDEX 01 421:44:23
TRACK 33 AUDIO
  TITLE "Chapter 33"
  INDEX 01 439:01:44
TRACK 34 AUDIO
  TITLE "Chapter 34"
  INDEX 01 448:36:74
TRACK 35 AUDIO
  TITLE "Chapter 35"
  INDEX 01 461:58:16
TRACK 36 AUDIO
  TITLE "Chapter 36"
  INDEX 01 466:43:51
TRACK 37 AUDIO
  TITLE "Chapter 37"
  INDEX 01 469:48:52
TRACK 38 AUDIO
  TITLE "Chapter 38"
  INDEX 01 476:40:25
TRACK 39 AUDIO
  TITLE "Chapter 39"
  INDEX 01 490:14:57
TRACK 40 AUDIO
  TITLE "Chapter 40"
  INDEX 01 505:34:13
TRACK 41 AUDIO
  TITLE "Chapter 41"
  INDEX 01 515:01:01
TRACK 42 AUDIO
  TITLE "Chapter 42"
  INDEX 01 532:45:11
TRACK 43 AUDIO
  TITLE "Chapter 43"
  INDEX 01 536:25:65
TRACK 44 AUDIO
  TITLE "Chapter 44"
  INDEX 01 540:37:43
TRACK 45 AUDIO
  TITLE "Chapter 45"
  INDEX 01 568:12:66
TRACK 46 AUDIO
  TITLE "Chapter 46"
  INDEX 01 580:33:58
TRACK 47 AUDIO
  TITLE "Chapter 47"
  INDEX 01 622:33:04
TRACK 48 AUDIO
  TITLE "Chapter 48"
  INDEX 01 630:25:26
TRACK 49 AUDIO
  TITLE "Chapter 49"
  INDEX 01 640:10:23
TRACK 50 AUDIO
  TITLE "Chapter 50"
  INDEX 01 651:24:35
TRACK 51 AUDIO
  TITLE "Chapter 51"
  INDEX 01 663:30:70
TRACK 52 AUDIO
  TITLE "Chapter 52"
  INDEX 01 670:11:36
TRACK 53 AUDIO
  TITLE "Chapter 53"
  INDEX 01 690:01:20
TRACK 54 AUDIO
  TITLE "Chapter 54"
  INDEX 01 705:01:31
TRACK 55 AUDIO
  TITLE "Chapter 55"
  INDEX 01 712:12:42
TRACK 56 AUDIO
  TITLE "Chapter 56"
  INDEX 01 734:08:15
TRACK 57 AUDIO
  TITLE "Chapter 57"
  INDEX 01 747:13:48
TRACK 58 AUDIO
  TITLE "Chapter 58"
  INDEX 01 776:49:38
TRACK 59 AUDIO
  TITLE "Chapter 59"
  INDEX 01 790:22:39
TRACK 60 AUDIO
  TITLE "Chapter 60"
  INDEX 01 808:39:05
TRACK 61 AUDIO
  TITLE "Chapter 61"
  INDEX 01 818:24:64
TRACK 62 AUDIO
  TITLE "Chapter 62"
  INDEX 01 825:10:31
TRACK 63 AUDIO
  TITLE "Chapter 63"
  INDEX 01 831:51:70
TRACK 64 AUDIO
  TITLE "Chapter 64"
  INDEX 01 852:21:43
TRACK 65 AUDIO
  TITLE "Chapter 65"
  INDEX 01 860:25:46
TRACK 66 AUDIO
  TITLE "Chapter 66"
  INDEX 01 870:38:74
TRACK 67 AUDIO
  TITLE "Chapter 67"
  INDEX 01 885:00:48
TRACK 68 AUDIO
  TITLE "Chapter 68"
  INDEX 01 893:16:71
TRACK 69 AUDIO
  TITLE "Chapter 69"
  INDEX 01 906:13:63
TRACK 70 AUDIO
  TITLE "Chapter 70"
  INDEX 01 925:25:06
TRACK 71 AUDIO
  TITLE "Chapter 71"
  INDEX 01 928:18:29
TRACK 72 AUDIO
  TITLE "Chapter 72"
  INDEX 01 940:16:61
TRACK 73 AUDIO
  TITLE "Chapter 73"
  INDEX 01 946:28:60
TRACK 74 AUDIO
  TITLE "Chapter 74"
  INDEX 01 957:51:39
TRACK 75 AUDIO
  TITLE "Chapter 75"
  INDEX 01 965:27:24
TRACK 76 AUDIO
  TITLE "Chapter 76"
  INDEX 01 975:56:44
TRACK 77 AUDIO
  TITLE "Chapter 77"
  INDEX 01 983:12:49
TRACK 78 AUDIO
  TITLE "Chapter 78"
  INDEX 01 998:35:66
TRACK 79 AUDIO
  TITLE "Chapter 79"
  INDEX 01 1011:28:65
TRACK 80 AUDIO
  TITLE "Chapter 80"
  INDEX 01 1021:08:47
TRACK 81 AUDIO
  TITLE "Chapter 81"
  INDEX 01 1028:22:21
TRACK 82 AUDIO
  TITLE "Chapter 82"
  INDEX 01 1033:01:43
TRACK 83 AUDIO
  TITLE "Chapter 83"
  INDEX 01 1040:07:56
TRACK 84 AUDIO
  TITLE "Chapter 84"
  INDEX 01 1051:31:26
TRACK 85 AUDIO
  TITLE "Chapter 85"
  INDEX 01 1071:57:55
TRACK 86 AUDIO
  TITLE "Chapter 86"
  INDEX 01 1088:42:73
TRACK 87 AUDIO
  TITLE "Chapter 87"
  INDEX 01 1098:04:22
TRACK 88 AUDIO
  TITLE "Chapter 88"
  INDEX 01 1128:24:66
TRACK 89 AUDIO
  TITLE "Chapter 89"
  INDEX 01 1140:02:37
TRACK 90 AUDIO
  TITLE "Chapter 90"
  INDEX 01 1147:37:35
TRACK 91 AUDIO
  TITLE "Chapter 91"
  INDEX 01 1157:24:63
TRACK 92 AUDIO
  TITLE "Chapter 92"
  INDEX 01 1168:44:15
TRACK 93 AUDIO
  TITLE "Chapter 93"
  INDEX 01 1176:04:31
TRACK 94 AUDIO
  TITLE "Chapter 94"
  INDEX 01 1185:41:53
TRACK 95 AUDIO
  TITLE "Chapter 95"
  INDEX 01 1192:06:59
TRACK 96 AUDIO
  TITLE "Chapter 96"
  INDEX 01 1198:35:68
TRACK 97 AUDIO
  TITLE "Chapter 97"
  INDEX 01 1209:19:49
TRACK 98 AUDIO
  TITLE "Chapter 98"
  INDEX 01 1225:53:39
TRACK 99 AUDIO
  TITLE "Chapter 99"
  INDEX 01 1238:28:44
TRACK 100 AUDIO
  TITLE "Chapter 100"
  INDEX 01 1244:20:45
TRACK 101 AUDIO
  TITLE "Chapter 101"
  INDEX 01 1252:07:17
TRACK 102 AUDIO
  TITLE "Chapter 102"
  INDEX 01 1265:32:65
TRACK 103 AUDIO
  TITLE "Chapter 103"
  INDEX 01 1274:36:72
TRACK 104 AUDIO
  TITLE "Chapter 104"
  INDEX 01 1277:58:69
TRACK 105 AUDIO
  TITLE "Chapter 105"
  INDEX 01 1281:13:20
TRACK 106 AUDIO
  TITLE "Chapter 106"
  INDEX 01 1292:06:41
TRACK 107 AUDIO
  TITLE "Chapter 107"
  INDEX 01 1310:04:66
TRACK 108 AUDIO
  TITLE "Chapter 108"
  INDEX 01 1313:31:44
